<svg xmlns="http://www.w3.org/2000/svg" viewBox="0 0 256 256"><defs><style>.cls-1{fill:none;}.cls-2{fill:#c5a697;}.cls-3{fill:#ffd423;}.cls-4{fill:#edbf1c;}.cls-5{fill:#4f5d7e;}</style></defs><title>banana</title><g id="Layer_2" data-name="Layer 2"><g id="Layer_1-2" data-name="Layer 1"><g id="banana"><rect class="cls-1" width="256" height="256"/><path class="cls-2" d="M232.25,67.16l4.58-2.59A12.84,12.84,0,0,0,240.38,62a7.86,7.86,0,0,0,1.71-3.87c.62-3.71-.89-7.46-2.93-10.62-1.28-2-12-1.6-13.71-3.25-2-2-4.71-3.84-7.56-3.46-3.1.41-5.23,3.23-7,5.82l-3.75,5.5h0c-2.42,3.56,3.88,5,2,8.88a5.48,5.48,0,0,0-.37,3.56,60.51,60.51,0,0,1-11,21.73h0C182,93,143.5,108.54,127.06,108.75c-39.66.52-74.86-15.81-87.73-22.59a5.66,5.66,0,0,0-1-.43,7.15,7.15,0,0,0-7.19,1.49,7.64,7.64,0,0,0-.77.83l-1.08,1.36h0l-3.73,4.68a7.16,7.16,0,0,0-1.32,6.34,6.8,6.8,0,0,0,.43,1.19,95.53,95.53,0,0,0,16.76,24.63q-4.12-1.62-8.4-3.55l-.76-.34a5.51,5.51,0,0,0-2.5-.49A5.42,5.42,0,0,0,26,123.63l-1.06,1.15-3.73,4.08A5.4,5.4,0,0,0,20,134.21c.1.32.2.65.33,1a129.64,129.64,0,0,0,8.13,19q1.09,2,2.29,4a9.15,9.15,0,0,0-5.86,5l-3.68,8a9.15,9.15,0,0,0-.57,5.93h0a9.12,9.12,0,0,0,1.4,3.12c3.85,5.49,10.44,14.8,14,19.25,5.24,6.54,61.06,39.69,109.9,26.61S234.1,180,239.77,148.8s-4.36-29-11.78-45.12c-6.26-13.63-2-29.43-.46-34C229.14,68.91,230.7,68,232.25,67.16Z"/><path class="cls-3" d="M198.8,76.27V106.6l-4,1.74c-6.71,2.84-21.1,8.74-38.24,14.69-28.41,9.85-64.39,19.84-85.47,16.15-15.4-2.69-27.11-11-35.64-19.93A95.53,95.53,0,0,1,18.65,94.62a6.8,6.8,0,0,1-.43-1.19,7.16,7.16,0,0,1,1.32-6.34l3.73-4.69,1.08-1.35a7.15,7.15,0,0,1,8-2.32,5.66,5.66,0,0,1,1,.43c12.87,6.78,48.07,23.11,87.73,22.59,16.45-.21,55-15.78,70.77-22.47,4.34-1.84,7-3,7-3Z"/><path class="cls-4" d="M198.8,76.27c-9.13,17-22.19,24.24-25.75,25.54q-10.29,3.73-19.87,6.27c-70.35,18.75-110.91-8.37-125.6-21.5-1.84-1.66-3.27-3.08-4.31-4.17l1.08-1.36a7.15,7.15,0,0,1,8-2.32,6,6,0,0,1,1,.43c12.87,6.78,48.07,23.11,87.72,22.59,16.46-.21,55-15.78,70.78-22.47,4.34-1.84,7-3,7-3Z"/><path class="cls-3" d="M189.72,173.87s-19.89.83-45.39,1.1h0c-41.52.44-97.95-.57-107.68-8.95a55.44,55.44,0,0,1-9.58-11.16c-.79-1.17-1.55-2.37-2.27-3.58s-1.56-2.7-2.29-4.05a129.64,129.64,0,0,1-8.13-19c-.13-.36-.23-.69-.33-1a5.4,5.4,0,0,1,1.16-5.35l3.73-4.08L20,116.63a5.44,5.44,0,0,1,6.26-1.27l.76.34q4.27,1.93,8.4,3.55c55.46,21.84,93.12,4.71,117.77-11.17,9.76-6.27,17.47-12.36,23.46-15.76a52.64,52.64,0,0,0,15.17-13h0a58.82,58.82,0,0,0,11.41-23.6l4.69,3.59,2.72,2.08s1.23,38.15,2.5,44.83h0a4.06,4.06,0,0,0,.12.52c1.31,4.8-23.55,67.16-23.55,67.16Z"/><path class="cls-3" d="M233.77,141.8C228.1,173,188.84,206.14,140,219.23S35.33,199.16,30.09,192.62c-3.56-4.45-10.15-13.76-14-19.25a9.21,9.21,0,0,1-.84-9.05l3.68-8a9.15,9.15,0,0,1,8.63-5.33,9,9,0,0,1,2.29.37c69.43,20.39,79.82,8.41,110.14,2.93,25-4.51,44.25-28.43,54.77-45.9,1.54-2.55,2.89-5,4-7.16.86-1.64,1.62-3.15,2.26-4.5,6.28-13.33,6.29-29.5,6.15-34.07h0c0-.81-.05-1.25-.05-1.25H222s-7.41,19.19,0,35.33,17.45,13.95,11.78,45.12Z"/><path class="cls-4" d="M213.15,106.18h0C207.72,131,192.51,156.81,155.84,171c-3.91,1.51-7.74,2.84-11.51,4h0c-62.79,19.65-105.74-4.45-120.11-14.6a61.62,61.62,0,0,1-5.28-4.09,9.1,9.1,0,0,1,5.86-5,8.85,8.85,0,0,1,2.77-.34,9,9,0,0,1,2.29.37c69.43,20.39,79.82,8.41,110.14,2.93,25-4.5,44.25-28.43,54.77-45.9,1.54-2.55,2.89-5,4-7.16.86-1.64,1.62-3.15,2.26-4.5,6.28-13.33,6.29-29.5,6.15-34.07h0c0-.81-.05-1.25-.05-1.25h7.25c1.62,11.83,2.41,28.09-1.26,44.83Z"/><path class="cls-4" d="M207.93,59.27c-.12.68-.26,1.37-.42,2.08q-.13.61-.3,1.26a78.5,78.5,0,0,1-8.41,20.23c-7.87,13.59-21.18,28.53-42.28,40.19h0a153.8,153.8,0,0,1-39.16,14.75c-54.17,12.75-84.27-7.25-94.45-16.11a39,39,0,0,1-4-3.89L20,116.63a5.44,5.44,0,0,1,6.26-1.27l.76.34q4.27,1.93,8.4,3.55c55.46,21.84,93.12,4.71,117.77-11.17,9.76-6.27,17.47-12.36,23.46-15.76a52.71,52.71,0,0,0,15.18-13h0a58.82,58.82,0,0,0,11.41-23.6Z"/><path class="cls-5" d="M201.15,45.11l3.75-5.5c1.76-2.59,3.89-5.41,7-5.82,2.85-.38,5.51,1.45,7.56,3.46,1.68,1.65,12.43,1.26,13.71,3.25,2,3.16,3.55,6.91,2.93,10.63A7.86,7.86,0,0,1,234.38,55a12.84,12.84,0,0,1-3.55,2.58l-4.58,2.59a38.65,38.65,0,0,1-9,4.1c-3.5.92-7.42.79-10.48-1.13-2.88-1.8-5.21-5.85-3.63-9.14,1.86-3.89-4.44-5.32-2-8.88Z"/><path class="cls-5" d="M32.31,78.73c.15,3-2.49,5.74-4.73,7.85l-.78.72c-2.21,2-5.32,3.41-7.4,5.48-.39.23-.78.45-1.18.65a7.16,7.16,0,0,1,1.32-6.34l3.73-4.68,1.08-1.36A7.15,7.15,0,0,1,32.31,78.73Z"/><path class="cls-5" d="M27,115.7c-.5,2.24-2.36,4.29-4.11,6-.44.43-.87.81-1.27,1.19-2.17,2-5.18,3.34-7.26,5.36-.13-.36-.23-.69-.33-1a5.4,5.4,0,0,1,1.16-5.35l3.73-4.08L20,116.63a5.44,5.44,0,0,1,6.26-1.27Z"/><path class="cls-5" d="M27.06,154.86a30,30,0,0,1-2.53,5l-.32.51c-1.55,2.39-3.9,4.45-5.2,6.87a11.68,11.68,0,0,1-3.19,2.59,6.48,6.48,0,0,1-1.14.42,9.15,9.15,0,0,1,.57-5.93l3.68-8a9.15,9.15,0,0,1,8.63-5.33A7.92,7.92,0,0,1,27.06,154.86Z"/></g></g></g></svg>