<svg xmlns="http://www.w3.org/2000/svg" viewBox="0 0 256 256"><defs><style>.cls-1{fill:none;}.cls-2{fill:#c5a697;}.cls-3{fill:#975b51;}.cls-4{fill:#ebcaa1;}.cls-5{fill:#af6f5b;}.cls-6{fill:#f9ebc8;}.cls-7{fill:#f4dcb5;}.cls-8{fill:#5f5461;}.cls-9{fill:#4c404f;}.cls-10{fill:#e6656f;}.cls-11{fill:#fff;}.cls-12{fill:#f37f88;}</style></defs><title>monkey</title><g id="Layer_2" data-name="Layer 2"><g id="Layer_1-2" data-name="Layer 1"><g id="monkey"><rect class="cls-1" width="256" height="256"/><path class="cls-2" d="M246.71,118.33a29.35,29.35,0,0,0-40.35-27.2,77.25,77.25,0,0,0-44-47.68V30.3L144,37.63,140.34,23h0c-9.68,3.22-17.93,10-24.15,16.57A77.18,77.18,0,0,0,63,82.49q-1.35,2.94-2.46,6c-.32.87-.61,1.76-.89,2.64a29.34,29.34,0,1,0-14.9,56.28,62.47,62.47,0,0,0-3.45,20.44c0,.93,0,1.87.07,2.79l0,.58c0,.9.11,1.8.2,2.69,0,.16,0,.31,0,.47.09.83.19,1.66.31,2.49,0,.12,0,.24,0,.36.13.89.29,1.78.47,2.66,0,.18.07.36.11.54.18.9.38,1.78.6,2.67a.74.74,0,0,0,0,.14c.21.86.45,1.71.71,2.56,0,.15.08.29.13.44.26.86.55,1.72.85,2.58,0,.13.09.26.14.39.31.86.63,1.71,1,2.56l0,.06c.36.87.74,1.73,1.14,2.59,0,.12.11.24.17.36.4.86.81,1.71,1.25,2.56l0,.06c.44.85.91,1.7,1.4,2.54l.08.15c.49.85,1,1.68,1.53,2.51a1.74,1.74,0,0,0,.11.18c1.08,1.68,2.24,3.33,3.46,4.94l.06.07C71.52,229,100.25,243,133,243c50.65,0,91.7-33.67,91.7-75.19a62.47,62.47,0,0,0-3.45-20.44A29.34,29.34,0,0,0,246.71,118.33Z"/><circle class="cls-3" cx="43.63" cy="111.33" r="29.34"/><circle class="cls-4" cx="43.63" cy="111.33" r="18.34"/><circle class="cls-3" cx="212.37" cy="111.33" r="29.34"/><circle class="cls-4" cx="212.37" cy="111.33" r="18.34"/><path class="cls-5" d="M210.88,128.69a42,42,0,0,1-5.85-21h0a77,77,0,0,0-47.69-71.21V23.3L139,30.63,135.34,16c-9.68,3.22-17.93,10-24.15,16.57A77,77,0,0,0,51,107.66a42,42,0,0,1-5.85,21,63.76,63.76,0,0,0-8.82,32.16C36.3,202.38,77.36,236,128,236s91.7-33.66,91.7-75.19A63.76,63.76,0,0,0,210.88,128.69Z"/><path class="cls-3" d="M76.65,174a84,84,0,0,1,8.82-37.52,55.22,55.22,0,0,0,5.85-24.53c0-37.33,19.53-69.27,47.3-82.84L135.34,16c-9.68,3.22-17.93,10-24.15,16.57A77,77,0,0,0,51,107.66a42,42,0,0,1-5.85,21,63.76,63.76,0,0,0-8.82,32.16c0,33.52,26.75,61.9,63.7,71.61A85.28,85.28,0,0,1,76.65,174Z"/><path class="cls-6" d="M128,221.37c30.39,0,55-19.71,55-44A35.7,35.7,0,0,0,180,163a18.66,18.66,0,0,1,2.7-19.5,33,33,0,0,0-47.53-45.55,10.7,10.7,0,0,1-14.3,0,33,33,0,0,0-47.53,45.55A18.63,18.63,0,0,1,76,163a35.85,35.85,0,0,0-3,14.38C73,201.66,97.61,221.37,128,221.37Z"/><path class="cls-7" d="M73,177.35a37.44,37.44,0,0,0,7.78,22.49,83.86,83.86,0,0,1,4.71-63.37,55.22,55.22,0,0,0,5.85-24.53,103.83,103.83,0,0,1,2.43-22.25l-.39,0a33,33,0,0,0-20,53.74A18.66,18.66,0,0,1,76,163,35.7,35.7,0,0,0,73,177.35Z"/><path class="cls-8" d="M120.66,159a3.71,3.71,0,0,1-1.64-.38L111.69,155a3.67,3.67,0,0,1,3.28-6.57l7.33,3.67a3.67,3.67,0,0,1-1.64,6.95Z"/><path class="cls-8" d="M135.34,159a3.67,3.67,0,0,1-1.64-6.95l7.33-3.67a3.67,3.67,0,0,1,3.28,6.57L137,158.63A3.71,3.71,0,0,1,135.34,159Z"/><path class="cls-9" d="M95.27,173.68a3.69,3.69,0,0,0-3.66,4.17c2.28,16.27,17.7,28.85,36.39,28.85s34.11-12.58,36.39-28.85a3.69,3.69,0,0,0-3.66-4.17Z"/><path class="cls-10" d="M106.86,200.64a39.9,39.9,0,0,0,42.28,0,22,22,0,0,0-42.28,0Z"/><path class="cls-9" d="M95,133.34h0a11,11,0,0,1-11-11v-3.67a11,11,0,0,1,11-11h0a11,11,0,0,1,11,11v3.67A11,11,0,0,1,95,133.34Z"/><path class="cls-8" d="M95,107.66V120.5a5.5,5.5,0,0,0,11,0v-1.84A11,11,0,0,0,95,107.66Z"/><circle class="cls-11" cx="94.99" cy="115" r="3.67"/><path class="cls-9" d="M161,133.34h0a11,11,0,0,1-11-11v-3.67a11,11,0,0,1,11-11h0a11,11,0,0,1,11,11v3.67A11,11,0,0,1,161,133.34Z"/><path class="cls-8" d="M161,107.66V120.5a5.51,5.51,0,0,0,11,0v-1.84A11,11,0,0,0,161,107.66Z"/><circle class="cls-11" cx="161.01" cy="115" r="3.67"/><path class="cls-12" d="M128,206.7c1.24,0,2.46-.08,3.67-.19v-7.15a3.67,3.67,0,1,0-7.34,0v7.15C125.54,206.62,126.76,206.7,128,206.7Z"/></g></g></g></svg>