<svg xmlns="http://www.w3.org/2000/svg" viewBox="0 0 256 256"><defs><style>.cls-1{fill:none;}.cls-2{fill:#c5a697;}.cls-3{fill:#f8981e;}.cls-4{fill:#ed8823;}.cls-5{fill:#a96327;}.cls-6{fill:#4fbf9f;}.cls-7{fill:#3da69b;}</style></defs><title>orange</title><g id="Layer_2" data-name="Layer 2"><g id="Layer_1-2" data-name="Layer 1"><g id="orange"><rect class="cls-1" width="256" height="256"/><path class="cls-2" d="M220.15,178l-.06.05A88.68,88.68,0,0,0,139.55,58.77c.13-9.86,2.74-23.68,14.86-31.85a3.93,3.93,0,0,0,1.79-3.24,3.89,3.89,0,0,0-6.08-3.18c-10,6.71-14.67,16.57-16.7,25.86-14.72-5.17-74-21.42-93,43.89a106.42,106.42,0,0,0,28.16.43l-.34.41c-.28.34-.56.69-.83,1-.55.69-1.08,1.38-1.61,2.07s-.84,1.14-1.25,1.72-.74,1-1.1,1.57c-.52.76-1,1.52-1.51,2.29-.27.43-.54.86-.8,1.29-.53.86-1,1.73-1.54,2.6L59,104.9c-.48.88-.94,1.76-1.39,2.65-.23.46-.45.91-.67,1.37-.38.78-.75,1.57-1.1,2.36-.26.59-.52,1.19-.77,1.79s-.46,1.09-.68,1.64c-.34.86-.66,1.72-1,2.59q-.28.77-.54,1.53c-.31.91-.61,1.82-.89,2.74-.14.48-.28,1-.41,1.43-.26.89-.5,1.77-.72,2.67-.13.52-.26,1-.38,1.58-.17.74-.33,1.48-.49,2.23s-.27,1.37-.4,2.06-.24,1.38-.35,2.08-.21,1.41-.3,2.12-.19,1.44-.26,2.17-.14,1.37-.2,2.05c0,.31,0,.62-.07.94-.09,1.26-.16,2.53-.2,3.8,0,.22,0,.45,0,.67,0,1.32,0,2.64,0,3.95,0,.23,0,.46,0,.69,0,1.19.1,2.38.18,3.58,0,.32,0,.65.07,1,.08,1,.17,2,.28,2.92.06.53.12,1.06.19,1.58s.17,1.23.26,1.84c.13.86.28,1.71.43,2.56.1.55.21,1.1.32,1.64.18.89.37,1.78.58,2.66.12.51.24,1,.37,1.53.23.89.46,1.77.71,2.65.15.51.31,1,.46,1.53.26.86.54,1.71.82,2.55l.57,1.61c.29.8.59,1.6.9,2.39.23.57.46,1.14.7,1.71q.47,1.11,1,2.22c.27.6.55,1.19.84,1.78s.63,1.3,1,1.95.67,1.3,1,1.94.73,1.33,1.11,2,.68,1.17,1,1.75.84,1.35,1.26,2,.69,1.05,1,1.57q.73,1.09,1.5,2.16l1,1.3q.92,1.22,1.86,2.4l.76,1c.76.92,1.54,1.82,2.33,2.71l.47.53q1.44,1.58,2.94,3.09l.06.06,0,0q1.58,1.57,3.23,3.07l.18.16c1,.94,2.1,1.85,3.18,2.74l.33.26c1,.84,2.09,1.66,3.16,2.45l.4.29c1.07.78,2.14,1.53,3.24,2.26l.37.24c1.13.74,2.27,1.45,3.43,2.14l.22.14A88.71,88.71,0,0,0,215.3,188.85l.17-.33A89.28,89.28,0,0,0,220.15,178ZM129,59.05c1.08-1.35,2.13-2.75,3.16-4.22-.1,1.39-.16,2.73-.18,4C131,58.9,130,59,129,59.05Z"/><circle class="cls-3" cx="129.82" cy="139.42" r="88.72"/><path class="cls-4" d="M213.15,170A88.73,88.73,0,1,1,70.81,73.17,88.73,88.73,0,0,0,213.15,170Z"/><path class="cls-4" d="M129.85,55.89c-7.74.15-15.51.83-17.78,5.24s5.27,12.58,17.78,12.6,20.14-8.31,17.78-12.6S137.59,56,129.85,55.89Z"/><path class="cls-5" d="M143.12,12.5c-24.22,16.25-17.21,51-17.12,51.38a3.83,3.83,0,0,0,3.75,3,3.55,3.55,0,0,0,.79-.09,3.83,3.83,0,0,0,3-4.54c-.29-1.39-6-30,13.9-43.37a3.93,3.93,0,0,0,1.79-3.24,3.89,3.89,0,0,0-6.08-3.18Z"/><path class="cls-6" d="M129.75,39.63S55.17,7.46,33.46,82.25C33.46,82.25,98.58,94.32,129.75,39.63Z"/><path class="cls-7" d="M129.75,39.63S64.88,38.49,40.41,77.84C40.41,77.84,62.12,48.1,129.75,39.63Z"/></g></g></g></svg>