<svg xmlns="http://www.w3.org/2000/svg" viewBox="0 0 256 256"><defs><style>.cls-1{fill:none;}.cls-2{fill:#c5a697;}.cls-3{fill:#378c4d;}.cls-4{fill:#3fa459;}.cls-5{fill:#4eb967;}.cls-6{fill:#68c07d;}.cls-7{fill:#c72127;}.cls-8{fill:#ee233f;}.cls-9{fill:#010101;}</style></defs><title>strawberry</title><g id="Layer_2" data-name="Layer 2"><g id="Layer_1-2" data-name="Layer 1"><g id="strawberry"><rect class="cls-1" width="256" height="256"/><path class="cls-2" d="M215.31,116.76a64.19,64.19,0,0,0-14.89-27.31c-.8-.88-1.62-1.72-2.47-2.55a64,64,0,0,0-9.52-7.64c-1-.63-1.94-1.23-2.94-1.81a61.68,61.68,0,0,0-9.23-4.37,57.8,57.8,0,0,0-8-2.36,54,54,0,0,0-9.86-1.22q-.82,0-1.65,0c-1.16,0-2.32,0-3.48.13,8.75-11.75,9-26.41,7.61-36.71-.29-2.11-.64-4-1-5.71a6.15,6.15,0,0,0-8.54-4.34q-2.76,1.26-5.22,2.6c-9.92,5.43-16.34,12-20.4,18.73A71.55,71.55,0,0,0,117.13,30a6.15,6.15,0,0,0-9.58-.21,76.36,76.36,0,0,0-5,6.72c-10,15-10.35,28.62-7.42,39.33l-19.34-27a3.31,3.31,0,1,0-5.38,3.86L89,78.8a43.33,43.33,0,0,0-18.56-6.66l-.8-.08c-1.24-.12-2.5-.21-3.8-.23a56.23,56.23,0,0,0-15.6,2h0a76.6,76.6,0,0,0-8,2.64,6.15,6.15,0,0,0-2.86,9.14,71.77,71.77,0,0,0,10.7,12.64,50.67,50.67,0,0,0-21.76,11,72,72,0,0,0-6.76,6.38A6.14,6.14,0,0,0,23,125.14c8.65,5.15,25.36,12.77,42.1,7.48C54.78,157,63.63,189.45,89.63,206.71c0,0,43.35,30.64,91.34,34.54a30.88,30.88,0,0,0,31.57-20.18C220.13,200.28,227.67,164.1,215.31,116.76Z"/><path class="cls-3" d="M125.76,78.86a70.85,70.85,0,0,1-8,2.12,50.21,50.21,0,0,1-2.59-9.75c-2.22-13.18-1.55-36.75,25.94-51.79q2.46-1.34,5.22-2.6a6.15,6.15,0,0,1,8.54,4.34c.35,1.68.7,3.6,1,5.71C157.94,42.71,156.28,68.82,125.76,78.86Z"/><path class="cls-4" d="M115.14,71.23c-2.22-13.18-1.55-36.75,25.94-51.79.07.42.13.84.18,1.27C143.28,35.82,141.86,60.31,115.14,71.23Z"/><path class="cls-3" d="M99.91,92.59a3.3,3.3,0,0,1-2.69-1.38L65.37,46.71a3.31,3.31,0,1,1,5.38-3.86l31.85,44.5a3.31,3.31,0,0,1-2.69,5.24Z"/><path class="cls-3" d="M86.54,103.31C64.33,141.13,31.41,127.15,18,119.14a6.14,6.14,0,0,1-1.35-9.48,72,72,0,0,1,6.76-6.38c27.15-22.5,53-7.42,60.77-1.82C85.7,102.57,86.54,103.31,86.54,103.31Z"/><path class="cls-4" d="M84.15,101.46c-21.24,21.61-47.48,10.2-59.12,3.26a5.91,5.91,0,0,1-1.65-1.44C50.53,80.79,76.36,95.86,84.15,101.46Z"/><path class="cls-5" d="M103.17,94.77c-36.29,24.63-60-2.13-68.73-15.14a6.15,6.15,0,0,1,2.86-9.14,76.6,76.6,0,0,1,8-2.64c30.18-8.07,47.05,9.76,54,20.14A46.71,46.71,0,0,1,103.17,94.77Z"/><path class="cls-6" d="M99.31,88c-27.18,10.34-45.64-8.45-54-20.14C75.46,59.78,92.33,77.61,99.31,88Z"/><path class="cls-5" d="M104.54,94c34.92-26.52,17.14-57.56,7.59-70a6.15,6.15,0,0,0-9.58-.21,76.36,76.36,0,0,0-5,6.72c-17.28,26-5.77,47.7,1.84,57.63A45.64,45.64,0,0,0,104.54,94Z"/><path class="cls-6" d="M99.35,88.17c18.47-22.45,6.56-45.95-1.84-57.63C80.23,56.57,91.74,78.24,99.35,88.17Z"/><path class="cls-7" d="M207.54,215.07A30.88,30.88,0,0,1,176,235.25c-48-3.9-91.34-34.54-91.34-34.54C50.09,177.78,45.8,128,76.47,106.05l1-.74,22.39-16,23.44-16.77c30.67-22,76.48-1.86,87,38.25C222.67,158.1,215.13,194.28,207.54,215.07Z"/><path class="cls-8" d="M207.54,215.07a30.7,30.7,0,0,1-1.68,3.79,30.91,30.91,0,0,1-17,3.48c-48-3.9-91.34-34.55-91.34-34.55-29.13-19.33-36.75-57.75-20-82.48l22.39-16,23.44-16.77c30.67-22,76.48-1.86,87,38.25C222.67,158.1,215.13,194.28,207.54,215.07Z"/><ellipse class="cls-9" cx="84.83" cy="159.19" rx="3.98" ry="7.16" transform="translate(-76.8 79.11) rotate(-35.59)"/><ellipse class="cls-9" cx="99.39" cy="122.65" rx="3.98" ry="7.16" transform="translate(-52.81 80.76) rotate(-35.59)"/><ellipse class="cls-9" cx="135.17" cy="146.12" rx="3.98" ry="7.16" transform="translate(-59.79 105.96) rotate(-35.59)"/><ellipse class="cls-9" cx="186.15" cy="91.83" rx="3.98" ry="7.16" transform="matrix(0.81, -0.58, 0.58, 0.81, -18.67, 125.49)"/><ellipse class="cls-9" cx="175.36" cy="136.08" rx="3.98" ry="7.16" transform="translate(-46.44 127.48) rotate(-35.59)"/><ellipse class="cls-9" cx="197.77" cy="173.41" rx="3.98" ry="7.16" transform="translate(-63.98 147.49) rotate(-35.59)"/><ellipse class="cls-9" cx="148.68" cy="193.32" rx="3.98" ry="7.16" transform="translate(-84.74 122.64) rotate(-35.59)"/><ellipse class="cls-9" cx="183.16" cy="211.78" rx="3.98" ry="7.16" transform="translate(-89.04 146.16) rotate(-35.59)"/><ellipse class="cls-9" cx="143.53" cy="97.49" rx="3.98" ry="7.16" transform="translate(-29.93 101.74) rotate(-35.59)"/><ellipse class="cls-9" cx="103.36" cy="193.71" rx="3.98" ry="7.16" transform="translate(-93.43 96.34) rotate(-35.59)"/></g></g></g></svg>